<?xml version="1.0" encoding="UTF-8" standalone="no"?>
<svg
   fill="#26e07f"
   viewBox="0 0 36 20.478811"
   width="36"
   height="20.478811"
   version="1.1"
   id="svg4"
   sodipodi:docname="icon-discord.svg"
   inkscape:version="1.1.1 (3bf5ae0d25, 2021-09-20, custom)"
   xmlns:inkscape="http://www.inkscape.org/namespaces/inkscape"
   xmlns:sodipodi="http://sodipodi.sourceforge.net/DTD/sodipodi-0.dtd"
   xmlns="http://www.w3.org/2000/svg"
   xmlns:svg="http://www.w3.org/2000/svg">
  <defs
     id="defs8" />
  <sodipodi:namedview
     id="namedview6"
     pagecolor="#ffffff"
     bordercolor="#666666"
     borderopacity="1.0"
     inkscape:pageshadow="2"
     inkscape:pageopacity="0.0"
     inkscape:pagecheckerboard="0"
     showgrid="false"
     fit-margin-left="1"
     fit-margin-top="1"
     fit-margin-right="10"
     fit-margin-bottom="1"
     inkscape:zoom="12.48"
     inkscape:cx="-21.955128"
     inkscape:cy="18.950321"
     inkscape:window-width="1920"
     inkscape:window-height="1006"
     inkscape:window-x="0"
     inkscape:window-y="0"
     inkscape:window-maximized="1"
     inkscape:current-layer="svg4" />
  <path
     d="M 22.535324,3.0492079 C 20.372026,1.3083792 16.949812,1.013288 16.803328,1.0026727 c -0.227158,-0.0191066 -0.443699,0.1082712 -0.53711,0.3184445 -0.0085,0.012737 -0.08279,0.1846978 -0.165591,0.4521908 1.430876,0.2420179 3.188689,0.728176 4.778787,1.715353 0.254755,0.1570994 0.333305,0.4925269 0.176206,0.7472827 -0.104025,0.1677141 -0.280231,0.2590017 -0.462806,0.2590017 -0.09765,0 -0.197435,-0.0276 -0.286599,-0.0828 C 17.57184,2.715903 14.158117,2.6309845 13.499999,2.6309845 c -0.658119,0 -4.0739636,0.084919 -6.8062155,1.781165 C 6.4390283,4.5713719 6.1036001,4.4928245 5.9465012,4.2380662 5.7872789,3.9811879 5.8658284,3.6478837 6.1205838,3.488661 7.7106821,2.5036069 9.4684938,2.0153259 10.899371,1.7754308 10.816575,1.505815 10.742271,1.3359781 10.735904,1.3211172 10.640369,1.1109439 10.42595,0.97932056 10.19667,1.0026727 10.050186,1.013288 6.6279719,1.3083792 4.4349524,3.0725606 3.2906759,4.1319187 1,10.322475 1,15.674462 c 0,0.09553 0.025476,0.186821 0.072181,0.269616 1.5794835,2.776834 5.8912184,3.502887 6.8741508,3.534731 0.00421,0 0.010622,0 0.016986,0 0.1740829,0 0.3375517,-0.08279 0.4394527,-0.22291 L 9.396317,17.888711 C 6.7150173,17.196625 5.3457069,16.020504 5.2671575,15.950447 5.0421233,15.753012 5.0208939,15.409092 5.2204519,15.184058 5.4178872,14.959024 5.7618074,14.937794 5.986841,15.13523 c 0.031845,0.02973 2.5539233,2.169666 7.513162,2.169666 4.96773,0 7.489809,-2.148437 7.515284,-2.169666 0.225034,-0.195313 0.566831,-0.176206 0.766389,0.05095 0.197435,0.225033 0.176206,0.56683 -0.04883,0.764265 -0.07855,0.07006 -1.44786,1.246179 -4.129162,1.938265 l 0.993547,1.367187 c 0.101902,0.140119 0.265372,0.222915 0.439454,0.222915 0.0064,0 0.01273,0 0.01699,0 0.982931,-0.03184 5.294666,-0.757898 6.87415,-3.534731 C 25.974521,15.861283 26,15.769995 26,15.674462 26,10.322475 23.709324,4.1319187 22.535326,3.0492079 Z M 9.9673913,13.500549 c -1.050867,0 -1.9021747,-0.972315 -1.9021747,-2.173913 0,-1.201596 0.8513077,-2.1739126 1.9021747,-2.1739126 1.0508647,0 1.9021727,0.9723166 1.9021727,2.1739126 0,1.201598 -0.851308,2.173913 -1.9021727,2.173913 z m 7.0652147,0 c -1.050864,0 -1.902172,-0.972315 -1.902172,-2.173913 0,-1.201596 0.851308,-2.1739126 1.902172,-2.1739126 1.050867,0 1.902175,0.9723166 1.902175,2.1739126 0,1.201598 -0.851308,2.173913 -1.902175,2.173913 z"
     id="path2"
     style="fill:#008000;stroke-width:0.543479" />
</svg>
