<?xml version="1.0" encoding="UTF-8" standalone="no"?>
<svg
   fill="#26e07f"
   viewBox="0 0 36 27"
   width="36"
   height="27"
   version="1.1"
   id="svg4"
   sodipodi:docname="icon-linkedin.svg"
   inkscape:version="1.1.1 (3bf5ae0d25, 2021-09-20, custom)"
   xmlns:inkscape="http://www.inkscape.org/namespaces/inkscape"
   xmlns:sodipodi="http://sodipodi.sourceforge.net/DTD/sodipodi-0.dtd"
   xmlns="http://www.w3.org/2000/svg"
   xmlns:svg="http://www.w3.org/2000/svg">
  <defs
     id="defs8" />
  <sodipodi:namedview
     id="namedview6"
     pagecolor="#ffffff"
     bordercolor="#666666"
     borderopacity="1.0"
     inkscape:pageshadow="2"
     inkscape:pageopacity="0.0"
     inkscape:pagecheckerboard="0"
     showgrid="false"
     inkscape:zoom="12.48"
     inkscape:cx="-7.3717949"
     inkscape:cy="21.995192"
     inkscape:window-width="1920"
     inkscape:window-height="1006"
     inkscape:window-x="0"
     inkscape:window-y="0"
     inkscape:window-maximized="1"
     inkscape:current-layer="svg4"
     fit-margin-left="1"
     fit-margin-top="1"
     fit-margin-right="10"
     fit-margin-bottom="1" />
  <path
     d="M 23.023809,1 H 3.9761905 C 2.3333333,1 1,2.3333333 1,3.9761905 V 23.023809 C 1,24.666667 2.3333333,26 3.9761905,26 H 23.023809 C 24.666667,26 26,24.666667 26,23.023809 V 3.9761905 C 26,2.3333333 24.666667,1 23.023809,1 Z M 8.738095,10.523809 V 21.833333 H 5.1666667 V 10.523809 Z M 5.1666667,7.2321425 c 0,-0.8333333 0.7142857,-1.4702377 1.7857141,-1.4702377 1.0714284,0 1.7440475,0.6369044 1.7857142,1.4702377 0,0.8333333 -0.6666667,1.5059525 -1.7857142,1.5059525 -1.0714284,0 -1.7857141,-0.6726192 -1.7857141,-1.5059525 z M 21.833333,21.833333 h -3.571428 c 0,0 0,-5.511905 0,-5.95238 0,-1.190477 -0.595238,-2.380953 -2.083333,-2.404762 h -0.04762 c -1.440477,0 -2.035714,1.22619 -2.035714,2.404762 0,0.541666 0,5.95238 0,5.95238 H 10.523809 V 10.523809 h 3.571429 v 1.52381 c 0,0 1.14881,-1.52381 3.458334,-1.52381 2.363095,0 4.279761,1.625 4.279761,4.916667 z"
     id="path2"
     style="fill:#008000;stroke-width:0.595237" />
</svg>
