<?xml version="1.0" encoding="UTF-8" standalone="no"?>
<svg
   fill="#26e07f"
   viewBox="0 0 36 26.367384"
   width="36"
   height="26.367384"
   version="1.1"
   id="svg4"
   sodipodi:docname="icon-github.svg"
   inkscape:version="1.1.1 (3bf5ae0d25, 2021-09-20, custom)"
   xmlns:inkscape="http://www.inkscape.org/namespaces/inkscape"
   xmlns:sodipodi="http://sodipodi.sourceforge.net/DTD/sodipodi-0.dtd"
   xmlns="http://www.w3.org/2000/svg"
   xmlns:svg="http://www.w3.org/2000/svg">
  <defs
     id="defs8" />
  <sodipodi:namedview
     id="namedview6"
     pagecolor="#ffffff"
     bordercolor="#666666"
     borderopacity="1.0"
     inkscape:pageshadow="2"
     inkscape:pageopacity="0.0"
     inkscape:pagecheckerboard="0"
     showgrid="false"
     fit-margin-top="1"
     fit-margin-left="1"
     fit-margin-right="10"
     fit-margin-bottom="1"
     inkscape:zoom="12.48"
     inkscape:cx="-5.3685897"
     inkscape:cy="23.998397"
     inkscape:window-width="1920"
     inkscape:window-height="1006"
     inkscape:window-x="0"
     inkscape:window-y="0"
     inkscape:window-maximized="1"
     inkscape:current-layer="svg4" />
  <path
     d="M 9.5820626,25.367384 C 9.968476,25.201079 10.239127,24.81684 10.239127,24.369558 v -2.934781 c 0,-0.107066 0.0087,-0.218478 0.02228,-0.331522 -0.0076,0.0022 -0.01468,0.0038 -0.02228,0.0055 0,0 -1.6304334,0 -1.9565209,0 -0.8152168,0 -1.5217383,-0.326088 -1.8478252,-0.978262 -0.3804346,-0.706521 -0.543478,-1.902173 -1.5217386,-2.554346 -0.1630435,-0.108696 -0.054347,-0.271739 0.271739,-0.271739 0.3260868,0.05435 1.0326084,0.48913 1.4673909,1.086955 0.4891303,0.597827 0.9782604,1.086957 1.8478259,1.086957 1.3516295,0 2.0760859,-0.06794 2.5119559,-0.30163 0.507608,-0.754891 1.210326,-1.328804 1.944564,-1.328804 v -0.01359 c -3.0804334,-0.09891 -5.0483679,-1.122825 -5.9646721,-2.703803 -1.9918472,0.02283 -3.7260858,0.220108 -4.7157593,0.384238 -0.031522,-0.177717 -0.058695,-0.356521 -0.082066,-0.536413 0.9766301,-0.160869 2.6320644,-0.35163 4.5353246,-0.388043 -0.06087,-0.15 -0.1135868,-0.303804 -0.1581521,-0.461412 -1.9081515,-0.09674 -3.5548902,-0.0212 -4.4494551,0.05271 -0.01087,-0.180434 -0.025544,-0.360326 -0.027717,-0.542934 0.8961953,-0.07337 2.4983688,-0.146739 4.3576073,-0.06032 -0.042934,-0.271739 -0.070653,-0.549456 -0.070653,-0.838587 0,-0.923913 0.3260868,-1.902174 0.9239127,-2.71739 C 7.0331503,9.0983667 6.6527157,7.141846 7.413585,6.4353244 c 1.4673906,0 2.4999991,0.7065216 2.989129,1.1413041 0.923369,-0.3809782 1.955978,-0.5983695 3.097282,-0.5983695 1.141304,0 2.173913,0.2173913 3.043478,0.5978261 0.48913,-0.4347826 1.521738,-1.1413042 2.989129,-1.1413042 0.815218,0.7608694 0.380434,2.7173907 0.108696,3.5869551 0.597825,0.815218 0.923913,1.739131 0.869565,2.71739 0,0.263044 -0.02446,0.516848 -0.05978,0.765761 1.90163,-0.09348 3.547282,-0.01848 4.458694,0.05543 -0.0011,0.183152 -0.01794,0.361957 -0.02771,0.542935 -0.908152,-0.075 -2.595108,-0.152174 -4.542933,-0.04837 -0.04836,0.182608 -0.107065,0.360326 -0.17663,0.532609 1.927173,0.025 3.622281,0.211413 4.645651,0.374455 -0.02337,0.180436 -0.05055,0.35924 -0.08207,0.536414 -1.039131,-0.166304 -2.810326,-0.36087 -4.825542,-0.370652 -0.904891,1.56413 -2.836956,2.584238 -5.857065,2.703259 v 0.01684 c 1.413044,0 2.717392,2.119563 2.717392,3.586955 v 2.934782 c 0,0.447282 0.270652,0.831521 0.657064,0.997825 C 22.39674,23.719553 26,19.023902 26,13.49999 25.999992,6.607607 20.392929,1 13.499996,1 6.6070635,1 1,6.607607 1,13.499996 1,19.023908 4.6032598,23.719558 9.5820626,25.367384 Z"
     id="path2"
     style="fill:#008000;stroke-width:0.543478" />
</svg>
