<?xml version="1.0" encoding="UTF-8" standalone="no"?>
<svg
   fill="#26e07f"
   viewBox="0 0 54 54"
   width="27"
   height="27"
   version="1.1"
   id="svg6"
   sodipodi:docname="icon-circle-not-empty.svg"
   inkscape:version="1.1.1 (3bf5ae0d25, 2021-09-20, custom)"
   xmlns:inkscape="http://www.inkscape.org/namespaces/inkscape"
   xmlns:sodipodi="http://sodipodi.sourceforge.net/DTD/sodipodi-0.dtd"
   xmlns="http://www.w3.org/2000/svg"
   xmlns:svg="http://www.w3.org/2000/svg">
  <defs
     id="defs10" />
  <sodipodi:namedview
     id="namedview8"
     pagecolor="#ffffff"
     bordercolor="#666666"
     borderopacity="1.0"
     inkscape:pageshadow="2"
     inkscape:pageopacity="0.0"
     inkscape:pagecheckerboard="0"
     showgrid="false"
     fit-margin-top="1"
     fit-margin-left="1"
     fit-margin-bottom="1"
     fit-margin-right="1"
     inkscape:zoom="27.577164"
     inkscape:cx="15.773921"
     inkscape:cy="12.854839"
     inkscape:window-width="1920"
     inkscape:window-height="1006"
     inkscape:window-x="0"
     inkscape:window-y="0"
     inkscape:window-maximized="1"
     inkscape:current-layer="svg6" />
  <path
     d="M 27,2 C 13.230159,2 2,13.230159 2,27 2,40.769841 13.230159,52 27,52 40.769841,52 52,40.769841 52,27 52,13.230159 40.769841,2 27,2 Z m 0,47.619048 C 14.539683,49.619048 4.3809524,39.460317 4.3809524,27 4.3809524,14.539683 14.539683,4.3809524 27,4.3809524 39.460317,4.3809524 49.619048,14.539683 49.619048,27 49.619048,39.460317 39.460317,49.619048 27,49.619048 Z"
     id="path4"
     style="fill:#008000;stroke-width:0.396825" />
  <circle
     style="fill:#008000;stroke-width:2"
     id="path1301"
     cx="26.769794"
     cy="27.002031"
     r="20" />
  <ellipse
     style="fill:#008000;stroke-width:2"
     id="path1303"
     cx="30.987026"
     cy="10.389077"
     rx="0.0058969352"
     ry="0.85868794" />
  <ellipse
     style="fill:#008000;stroke-width:2"
     id="path1434"
     cx="26.717175"
     cy="15.046761"
     rx="0.27373916"
     ry="0.10104261" />
</svg>
