<?xml version="1.0" encoding="UTF-8" standalone="no"?>
<svg
   enable-background="new 0 0 64 64"
   version="1.1"
   viewBox="0 0 36 40.631809"
   xml:space="preserve"
   id="svg5"
   sodipodi:docname="locate_gps_navigation_pin_point_location_icon-icons.com_59906.svg"
   width="36"
   height="40.631809"
   inkscape:version="1.1.1 (3bf5ae0d25, 2021-09-20, custom)"
   xmlns:inkscape="http://www.inkscape.org/namespaces/inkscape"
   xmlns:sodipodi="http://sodipodi.sourceforge.net/DTD/sodipodi-0.dtd"
   xmlns="http://www.w3.org/2000/svg"
   xmlns:svg="http://www.w3.org/2000/svg"><defs
     id="defs9" /><sodipodi:namedview
     id="namedview7"
     pagecolor="#ffffff"
     bordercolor="#666666"
     borderopacity="1.0"
     inkscape:pageshadow="2"
     inkscape:pageopacity="0.0"
     inkscape:pagecheckerboard="0"
     showgrid="false"
     fit-margin-top="1"
     fit-margin-left="1"
     fit-margin-right="10"
     fit-margin-bottom="1"
     inkscape:zoom="9.75"
     inkscape:cx="21.74359"
     inkscape:cy="32.974359"
     inkscape:window-width="1920"
     inkscape:window-height="1006"
     inkscape:window-x="0"
     inkscape:window-y="0"
     inkscape:window-maximized="1"
     inkscape:current-layer="svg5" /><g
     id="Glyph"
     transform="matrix(0.60363145,0,0,0.60363145,-5.8162063,1)"
     style="fill:#008000"><path
       d="M 52.708,20.849 C 52.708,8.185 44.584,0 32,0 19.416,0 11.292,8.185 11.292,20.849 c 0,10.556 16.311,31.747 18.175,34.118 l 2.278,2.928 c -9.542,0.025 -17.237,1.38 -17.237,3.051 0,1.686 7.836,3.053 17.502,3.053 9.666,0 17.502,-1.367 17.502,-3.053 0,-1.672 -7.704,-3.028 -17.255,-3.051 l 2.292,-2.928 C 36.396,52.581 52.708,31.39 52.708,20.849 Z M 25.294,20.835 c 0,-3.604 3.002,-6.526 6.706,-6.526 3.704,0 6.706,2.922 6.706,6.526 0,3.604 -3.002,6.526 -6.706,6.526 -3.704,0 -6.706,-2.922 -6.706,-6.526 z"
       id="path2"
       style="fill:#008000" /></g></svg>
