<?xml version="1.0" encoding="UTF-8" standalone="no"?>
<svg
   fill="#26e07f"
   viewBox="0 0 36 27"
   width="36"
   height="27"
   version="1.1"
   id="svg4"
   sodipodi:docname="icon-phone.svg"
   inkscape:version="1.1.1 (3bf5ae0d25, 2021-09-20, custom)"
   xmlns:inkscape="http://www.inkscape.org/namespaces/inkscape"
   xmlns:sodipodi="http://sodipodi.sourceforge.net/DTD/sodipodi-0.dtd"
   xmlns="http://www.w3.org/2000/svg"
   xmlns:svg="http://www.w3.org/2000/svg">
  <defs
     id="defs8" />
  <sodipodi:namedview
     id="namedview6"
     pagecolor="#ffffff"
     bordercolor="#666666"
     borderopacity="1.0"
     inkscape:pageshadow="2"
     inkscape:pageopacity="0.0"
     inkscape:pagecheckerboard="false"
     showgrid="false"
     inkscape:zoom="12.48"
     inkscape:cx="21.955128"
     inkscape:cy="21.995192"
     inkscape:window-width="1920"
     inkscape:window-height="1006"
     inkscape:window-x="0"
     inkscape:window-y="0"
     inkscape:window-maximized="1"
     inkscape:current-layer="svg4"
     width="35px"
     showborder="true"
     inkscape:showpageshadow="true"
     borderlayer="false"
     fit-margin-top="1"
     fit-margin-left="1"
     fit-margin-right="10"
     fit-margin-bottom="1"
     inkscape:snap-global="true" />
  <path
     d="M 6.9523808,1 C 3.6718251,1 1,3.6718253 1,6.9523805 V 20.047619 C 1,23.328175 3.6718251,26 6.9523808,26 H 20.047619 C 23.328175,26 26,23.328175 26,20.047619 V 6.9523805 C 26,3.6718253 23.328175,1 20.047619,1 Z m 2.38444,4.7874813 c 0.3738092,0.016072 0.7171042,0.2266834 0.9242472,0.5498975 0.235715,0.3678575 0.601516,0.938765 1.077706,1.6834079 0.434524,0.6791666 0.464825,1.5563625 0.07673,2.2646953 l -0.871931,1.240467 c -0.235714,0.335714 -0.282729,0.765402 -0.124395,1.143974 0.246428,0.589285 0.724153,1.49494 1.572962,2.343749 0.84881,0.84881 1.754464,1.326535 2.34375,1.572963 0.378572,0.158333 0.808259,0.111319 1.143974,-0.124395 l 1.240466,-0.871931 c 0.708334,-0.388095 1.585529,-0.357199 2.264695,0.07673 0.744644,0.47619 1.315551,0.841992 1.683409,1.077707 0.323214,0.207143 0.533825,0.550438 0.549897,0.924247 0.09167,2.121428 -1.551878,2.980841 -2.029855,2.980841 -0.330952,0 -4.309701,0.452204 -8.797201,-4.035296 -4.4874995,-4.4875 -4.0352957,-8.4662485 -4.0352957,-8.797201 0,-0.477977 0.8594125,-2.121522 2.9808415,-2.0298557 z"
     id="path2"
     style="fill:#008000;stroke-width:0.595237" />
</svg>
